<svg width="100" height="100" viewBox="0 0 100 100" fill="none" xmlns="http://www.w3.org/2000/svg">
<rect width="100" height="100" fill="#1E1E1E"/>
<path d="M75 10H25C16.7157 10 10 16.7157 10 25V75C10 83.2843 16.7157 90 25 90H75C83.2843 90 90 83.2843 90 75V25C90 16.7157 83.2843 10 75 10Z" fill="black"/>
<path d="M22.421 69V32.6364H34.7079C37.5488 32.6364 39.8807 33.1217 41.7037 34.0923C43.5266 35.0511 44.876 36.371 45.752 38.0518C46.6279 39.7327 47.0659 41.6444 47.0659 43.7869C47.0659 45.9295 46.6279 47.8293 45.752 49.4865C44.876 51.1437 43.5325 52.4458 41.7214 53.3928C39.9103 54.3279 37.5962 54.7955 34.7789 54.7955H24.8358V50.8182H34.6369C36.5782 50.8182 38.1407 50.5341 39.3244 49.9659C40.5199 49.3977 41.3841 48.5928 41.9167 47.5511C42.4612 46.4976 42.7335 45.2429 42.7335 43.7869C42.7335 42.331 42.4612 41.0585 41.9167 39.9695C41.3722 38.8804 40.5022 38.04 39.3066 37.4482C38.1111 36.8445 36.5308 36.5426 34.5659 36.5426H26.8244V69H22.421ZM39.5375 52.6648L48.4863 69H43.3727L34.5659 52.6648H39.5375ZM54.4034 69V32.6364H66.6903C69.5313 32.6364 71.8632 33.1217 73.6861 34.0923C75.509 35.0511 76.8584 36.371 77.7344 38.0518C78.6103 39.7327 79.0483 41.6444 79.0483 43.7869C79.0483 45.9295 78.6103 47.8293 77.7344 49.4865C76.8584 51.1437 75.5149 52.4458 73.7038 53.3928C71.8928 54.3279 69.5786 54.7955 66.7614 54.7955H56.8182V50.8182H66.6193C68.5606 50.8182 70.1231 50.5341 71.3068 49.9659C72.5024 49.3977 73.3665 48.5928 73.8991 47.5511C74.4437 46.4976 74.7159 45.2429 74.7159 43.7869C74.7159 42.331 74.4437 41.0585 73.8991 39.9695C73.3546 38.8804 72.4846 38.04 71.2891 37.4482C70.0935 36.8445 68.5133 36.5426 66.5483 36.5426H58.8068V69H54.4034ZM71.5199 52.6648L80.4688 69H75.3551L66.5483 52.6648H71.5199Z" fill="white"/>
</svg>
